<svg width="100" height="100" viewBox="0 0 24 24" fill="none" xmlns="http://www.w3.org/2000/svg">
    <path d="M12 4.5C7 4.5 2.73 7.61 1 12C2.73 16.39 7 19.5 12 19.5C17 19.5 21.27 16.39 23 12C21.27 7.61 17 4.5 12 4.5ZM12 17.5C8.69 17.5 6 14.81 6 11.5C6 8.19 8.69 5.5 12 5.5C15.31 5.5 18 8.19 18 11.5C18 14.81 15.31 17.5 12 17.5ZM12 7.5C10.07 7.5 8.5 9.07 8.5 11C8.5 12.93 10.07 14.5 12 14.5C13.93 14.5 15.5 12.93 15.5 11C15.5 9.07 13.93 7.5 12 7.5ZM12 12.5C11.17 12.5 10.5 11.83 10.5 11C10.5 10.17 11.17 9.5 12 9.5C12.83 9.5 13.5 10.17 13.5 11C13.5 11.83 12.83 12.5 12 12.5Z"
          fill="black"/>
</svg>
